<svg height="496pt" viewBox="0 0 496.00477 496" width="496pt" xmlns="http://www.w3.org/2000/svg"><path d="m400.007812 96.003906c26.472657 0 48-21.53125 48-48 0-26.472656-21.527343-47.99999975-48-47.99999975-26.472656 0-48 21.52734375-48 47.99999975 0 26.46875 21.527344 48 48 48zm0-80c17.648438 0 32 14.351563 32 32 0 17.644532-14.351562 32-32 32-17.648437 0-32-14.355468-32-32 0-17.648437 14.351563-32 32-32zm0 0"/><path d="m479.949219 143.066406c-.207031-1.792968-1.015625-3.457031-2.285157-4.71875l-24-24c-1.496093-1.503906-3.539062-2.34375-5.65625-2.34375h-96c-2.121093 0-4.160156.839844-5.65625 2.34375l-24 24c-1.273437 1.269532-2.082031 2.933594-2.289062 4.71875l-16 136c-.265625 2.273438.449219 4.542969 1.96875 6.246094 1.511719 1.714844 3.6875 2.691406 5.976562 2.691406h39.023438l-22.976562 199.078125c-.257813 2.265625.457031 4.535157 1.976562 6.242188 1.519531 1.703125 3.695312 2.679687 5.976562 2.679687h48c4.160157 0 7.621094-3.183594 7.976563-7.335937l8.023437-96.328125 8.023438 96.335937c.351562 4.144531 3.816406 7.328125 7.976562 7.328125h48c2.277344 0 4.453126-.976562 5.976563-2.671875 1.519531-1.699219 2.230469-3.976562 1.972656-6.242187l-22.972656-199.085938h39.023437c2.285157 0 4.464844-.976562 5.976563-2.679687 1.519531-1.707031 2.230469-3.984375 1.964844-6.25zm-31.941407 128.9375v-112h-16v120c0 .300782.015626.613282.046876.917969l22.976562 199.082031h-31.664062l-15.382813-184.664062c-.355469-4.152344-3.816406-7.335938-7.976563-7.335938-4.160156 0-7.625 3.183594-7.976562 7.335938l-15.382812 184.664062h-31.664063l22.972656-199.082031c.035157-.304687.050781-.617187.050781-.917969v-120h-16v112h-31l14.621094-124.3125 19.691406-19.6875h89.375l19.6875 19.6875 14.625 124.3125zm0 0"/><path d="m277.664062 250.347656-16-16c-1.496093-1.503906-3.539062-2.34375-5.65625-2.34375h-80c-2.121093 0-4.160156.839844-5.65625 2.34375l-16 16c-1.121093 1.117188-1.878906 2.535156-2.183593 4.085938l-16 80c-.472657 2.351562.136719 4.792968 1.65625 6.640625 1.519531 1.855469 3.78125 2.929687 6.183593 2.929687h32v7.070313l-31.792968 135.097656c-.558594 2.375 0 4.878906 1.519531 6.796875 1.519531 1.914062 3.824219 3.035156 6.273437 3.035156h40c3.847657 0 7.152344-2.746094 7.863282-6.53125l16.136718-86.0625 16.136719 86.0625c.710938 3.785156 4.015625 6.53125 7.863281 6.53125h40c2.445313 0 4.75-1.121094 6.269532-3.035156 1.519531-1.917969 2.082031-4.421875 1.519531-6.796875l-31.789063-135.097656v-7.070313h32c2.398438 0 4.664063-1.074218 6.183594-2.929687 1.519532-1.847657 2.128906-4.289063 1.65625-6.640625l-16-80c-.304687-1.550782-1.066406-2.96875-2.183594-4.085938zm-21.65625 77.65625v-56h-16v80c0 .613282.070313 1.230469.207032 1.832032l29.6875 126.167968h-23.253906l-22.777344-121.472656c-.710938-3.785156-4.015625-6.527344-7.863282-6.527344-3.847656 0-7.152343 2.742188-7.863281 6.527344l-22.777343 121.472656h-23.257813l29.6875-126.167968c.136719-.601563.210937-1.21875.210937-1.832032v-80h-16v56h-22.242187l13.617187-68.058594 11.9375-11.941406h73.375l11.945313 11.941406 13.605469 68.058594zm0 0"/><path d="m116.445312 353.347656-24-16c-1.308593-.875-2.863281-1.34375-4.4375-1.34375h-48c-1.578124 0-3.128906.46875-4.441406 1.34375l-24 16c-1.9375 1.285156-3.207031 3.351563-3.503906 5.664063l-8 64c-.289062 2.277343.425781 4.566406 1.945312 6.285156 1.519532 1.722656 3.703126 2.707031 6 2.707031h20.285157l-4.261719 55.382813c-.167969 2.222656.589844 4.414062 2.105469 6.046875 1.519531 1.640625 3.644531 2.570312 5.871093 2.570312h64c2.222657 0 4.351563-.929687 5.871094-2.5625 1.511719-1.640625 2.28125-3.832031 2.105469-6.046875l-4.265625-55.390625h20.289062c2.296876 0 4.480469-.984375 6-2.707031 1.519532-1.71875 2.222657-4.007813 1.941407-6.285156l-8-64c-.292969-2.3125-1.574219-4.378907-3.503907-5.664063zm-17.949218 62.65625-2.511719-32.617187-15.953125 1.222656 7.335938 95.394531h-15.359376v-48h-16v48h-15.359374l7.335937-95.386718-15.953125-1.222657-2.511719 32.609375h-12.449219l6.425782-51.378906 18.933594-12.621094h43.160156l18.9375 12.621094 6.414062 51.378906zm0 0"/><path d="m176.007812 176.003906c0 22.054688 17.941407 40 40 40 22.054688 0 40-17.945312 40-40 0-22.058594-17.945312-40-40-40-22.058593 0-40 17.941406-40 40zm64 0c0 13.230469-10.769531 24-24 24-13.234374 0-24-10.769531-24-24 0-13.234375 10.765626-24 24-24 13.230469 0 24 10.765625 24 24zm0 0"/><path d="m32.007812 288.003906c0 17.644532 14.351563 32 32 32 17.648438 0 32-14.355468 32-32 0-17.648437-14.351562-32-32-32-17.648437 0-32 14.351563-32 32zm48 0c0 8.824219-7.175781 16-16 16-8.824218 0-16-7.175781-16-16 0-8.824218 7.175782-16 16-16 8.824219 0 16 7.175782 16 16zm0 0"/><path d="m197.664062 58.347656c-3.128906-3.128906-8.183593-3.128906-11.3125 0l-184 184 11.3125 11.3125 178.34375-178.347656 18.34375 18.347656c2.289063 2.285156 5.71875 2.964844 8.71875 1.734375 2.984376-1.238281 4.9375-4.160156 4.9375-7.390625v-80c0-4.417968-3.585937-7.99999975-8-7.99999975h-80c-3.234374 0-6.152343 1.94921875-7.394531 4.93359375-1.238281 2.992188-.550781 6.433594 1.738281 8.722656l18.34375 18.34375-146.34375 146.34375 11.3125 11.3125 152-152c3.125-3.128906 3.125-8.1875 0-11.3125l-10.34375-10.34375h52.6875v52.6875zm0 0"/></svg>